<svg version="1.1" viewBox="0.0 0.0 749.2099737532808 387.3333333333333" fill="none" stroke="none" stroke-linecap="square" stroke-miterlimit="10" xmlns:xlink="http://www.w3.org/1999/xlink" xmlns="http://www.w3.org/2000/svg"><clipPath id="p.0"><path d="m0 0l749.20996 0l0 387.33334l-749.20996 0l0 -387.33334z" clip-rule="nonzero"/></clipPath><g clip-path="url(#p.0)"><path fill="#000000" fill-opacity="0.0" d="m0 0l749.20996 0l0 387.33334l-749.20996 0z" fill-rule="evenodd"/><path fill="#cccccc" d="m218.9252 77.779526l92.572174 0l-31.524933 54.603683l0 61.477676l222.54593 0l0 26.448822l73.46979 0l34.530212 -34.53018l0 97.71391l-33.70343 -19.45932l-74.29657 0l0 28.275604l-301.2257 0l0 -95.5092l32.32808 0l0 -61.713913l-33.26509 -57.614166z" fill-rule="evenodd"/><path stroke="#000000" stroke-width="3.0" stroke-linejoin="round" stroke-linecap="butt" d="m218.9252 77.779526l92.572174 0l-31.524933 54.603683l0 61.477676l222.54593 0l0 26.448822l73.46979 0l34.530212 -34.53018l0 97.71391l-33.70343 -19.45932l-74.29657 0l0 28.275604l-301.2257 0l0 -95.5092l32.32808 0l0 -61.713913l-33.26509 -57.614166z" fill-rule="evenodd"/><path fill="#000000" fill-opacity="0.0" d="m200.35312 249.69817l-35.265503 0l0 89.63255l-57.834335 0l0 -22.039368l57.834335 0" fill-rule="evenodd"/><path stroke="#000000" stroke-width="4.0" stroke-linejoin="round" stroke-linecap="butt" d="m200.35312 249.69817l-35.265503 0l0 89.63255l-57.834335 0l0 -22.039368l57.834335 0" fill-rule="evenodd"/><path fill="#ff0000" d="m231.66345 221.77705c-2.2120514 0 -3.9335938 0.37309265 -5.1645966 1.1193085c-1.2247467 0.7404938 -2.0808258 1.7088623 -2.568222 2.9050598c-0.3561859 0.88861084 -0.53427124 2.2471619 -0.53427124 4.075653l0 2.896515l-4.470978 0l0 3.588623l4.470978 0l0 23.633606l5.0333557 0l0 -23.633606l5.820709 0l0 -3.588623l-5.820709 0l0 -2.512024c0 -1.6405182 0.31869507 -2.7598267 0.95606995 -3.3579254c0.6373596 -0.59809875 1.7246552 -0.89715576 3.2618408 -0.89715576c0.9373169 0 1.9308624 0.08544922 2.9806519 0.2563324l0.7592163 -4.0243683c-1.7246399 -0.30760193 -3.2993317 -0.46139526 -4.724045 -0.46139526z" fill-rule="evenodd"/><path fill="#ff0000" d="m238.07466 232.77359l0 16.8665c0 1.9651947 0.10310364 3.4006348 0.3093109 4.3063354c0.29994202 1.3500061 0.81858826 2.4920807 1.5559387 3.4262848c0.74360657 0.9284668 1.8777466 1.7003174 3.4024506 2.3154907c1.5309448 0.61520386 3.1774902 0.9227905 4.939636 0.9227905c3.9929504 0 7.1516876 -1.5379639 9.476212 -4.613922l0 3.9987488l4.5272217 0l0 -27.222229l-5.061493 0l0 14.585159c0 2.3240662 -0.27804565 4.0984344 -0.834198 5.32312c-0.54989624 1.2189941 -1.4903259 2.184494 -2.8213043 2.8965302c-1.3309784 0.70632935 -2.7556915 1.0594788 -4.2741394 1.0594788c-1.5184479 0 -2.7931976 -0.3446045 -3.824234 -1.033844c-1.0310516 -0.6949463 -1.7059174 -1.6490631 -2.0245972 -2.8623505c-0.20620728 -0.8373413 -0.3093109 -2.4607697 -0.3093109 -4.87027l0 -15.097824z" fill-rule="evenodd"/><path fill="#ff0000" d="m284.27478 232.1584c-4.142914 0 -7.311035 1.4952545 -9.5043335 4.4857635l0 -3.870575l-4.555359 0l0 27.222229l5.061493 0l0 -14.867126c0 -3.486084 0.7810974 -5.8528748 2.3432922 -7.100342c1.5684204 -1.247467 3.430542 -1.8712006 5.5863647 -1.8712006c1.3497314 0 2.5245056 0.27911377 3.524292 0.8373413c1.0060425 0.552536 1.7059021 1.2958832 2.0995789 2.230072c0.39367676 0.92848206 0.59051514 2.3325958 0.59051514 4.2123413l0 16.558914l5.061493 0l0 -16.738342c0 -2.136078 -0.09375 -3.6313324 -0.28121948 -4.4857635c-0.29992676 -1.3158264 -0.8248291 -2.4522247 -1.5746765 -3.409195c-0.7498474 -0.95695496 -1.8808594 -1.7287903 -3.3930664 -2.315506c-1.5059509 -0.5924072 -3.1587524 -0.88861084 -4.958374 -0.88861084z" fill-rule="evenodd"/><path fill="#ff0000" d="m314.30624 232.1584c-2.5682373 0 -4.945862 0.552536 -7.1329346 1.6575928c-2.1808167 1.0993805 -3.805481 2.7512817 -4.8740234 4.955719c-1.0685425 2.2044373 -1.6028137 4.7762756 -1.6028137 7.715515c0 4.5455933 1.240387 8.037369 3.7211304 10.475357c2.4869995 2.4322815 5.7738647 3.648407 9.860535 3.648407c3.2618408 0 6.0112915 -0.88290405 8.248352 -2.6487427c2.2432861 -1.7715149 3.6367493 -4.220886 4.18042 -7.348114l-4.9771423 -0.58955383c-0.35617065 2.3069763 -1.1997681 4.0158386 -2.5307312 5.126602c-1.3309937 1.1107483 -2.9900513 1.6661377 -4.9771423 1.6661377c-2.4744873 0 -4.4803467 -0.8287964 -6.0175476 -2.4864044c-1.5371704 -1.6575928 -2.3057861 -4.3148804 -2.3057861 -7.9718475c0 -3.605713 0.7967224 -6.240204 2.3901672 -7.9035034c1.5934143 -1.6689911 3.6648865 -2.503479 6.2143555 -2.503479c1.6871643 0 3.1243896 0.46139526 4.3116455 1.3841705c1.193512 0.9227905 2.0245972 2.2984314 2.4932556 4.1269073l4.920868 -0.69207764c-0.5811157 -2.7512817 -1.9027405 -4.873123 -3.9648132 -6.3655243c-2.0621033 -1.4981079 -4.714691 -2.2471619 -7.957794 -2.2471619z" fill-rule="evenodd"/><path fill="#ff0000" d="m336.99857 223.26376l-5.0333557 2.7683563l0 6.7414703l-3.7117615 0l0 3.588623l3.7117615 0l0 15.661743c0 2.7683563 0.20620728 4.585449 0.6186218 5.4512634c0.41241455 0.86013794 1.1247864 1.5550842 2.137085 2.0848389c1.0122986 0.5297241 2.4370117 0.7946167 4.2741394 0.7946167c1.1247864 0 2.3995056 -0.13671875 3.8242188 -0.41012573l-0.7310791 -4.075653c-0.9185791 0.119628906 -1.6590576 0.17944336 -2.2214355 0.17944336c-0.7498474 0 -1.3278503 -0.111083984 -1.7340393 -0.3332367c-0.39990234 -0.22215271 -0.6904907 -0.5212097 -0.8717041 -0.89715576c-0.17495728 -0.37594604 -0.26245117 -1.2218323 -0.26245117 -2.5376587l0 -15.918076l5.08963 0l0 -3.588623l-5.08963 0l0 -9.509827z" fill-rule="evenodd"/><path fill="#ff0000" d="m347.0653 222.41788l0 5.306015l5.061493 0l0 -5.306015zm0 10.355713l0 27.222229l5.061493 0l0 -27.222229z" fill-rule="evenodd"/><path fill="#ff0000" d="m371.95096 235.97772c2.493225 0 4.5772095 0.8686676 6.2518616 2.606018c1.6809082 1.7316437 2.5213623 4.2807007 2.5213623 7.647171c0 3.571518 -0.834198 6.2288055 -2.5026245 7.9718475c-1.668396 1.743042 -3.758606 2.614563 -6.2705994 2.614563c-2.5307617 0 -4.6303406 -0.86582947 -6.2987366 -2.5974731c-1.6684265 -1.7373505 -2.5026245 -4.34906 -2.5026245 -7.835144c0 -3.486084 0.834198 -6.092102 2.5026245 -7.818054c1.668396 -1.7259521 3.7679749 -2.5889282 6.2987366 -2.5889282zm0 -3.8193207c-3.6930237 0 -6.823639 1.0082245 -9.391876 3.0246887c-3.0743713 2.42659 -4.6115723 6.1604614 -4.6115723 11.201614c0 4.5968475 1.2872314 8.117111 3.8617249 10.560791c2.580719 2.4436646 5.9613037 3.6654968 10.141724 3.6654968c2.605713 0 5.008362 -0.5553589 7.2079163 -1.6661377c2.2058105 -1.1107483 3.883606 -2.6686707 5.0333557 -4.6737366c1.1560364 -2.0107727 1.7340393 -4.7677307 1.7340393 -8.270905c0 -4.3234406 -1.3028564 -7.709839 -3.9085999 -10.15921c-2.605713 -2.4550629 -5.9613037 -3.682602 -10.066711 -3.682602z" fill-rule="evenodd"/><path fill="#ff0000" d="m405.91913 232.1584c-4.142914 0 -7.311035 1.4952545 -9.5043335 4.4857635l0 -3.870575l-4.5553284 0l0 27.222229l5.0614624 0l0 -14.867126c0 -3.486084 0.7810974 -5.8528748 2.3432922 -7.100342c1.5684509 -1.247467 3.4305725 -1.8712006 5.5863647 -1.8712006c1.3497314 0 2.5245056 0.27911377 3.5243225 0.8373413c1.0060425 0.552536 1.7059021 1.2958832 2.0995789 2.230072c0.39364624 0.92848206 0.5904846 2.3325958 0.5904846 4.2123413l0 16.558914l5.061493 0l0 -16.738342c0 -2.136078 -0.09371948 -3.6313324 -0.28118896 -4.4857635c-0.29995728 -1.3158264 -0.8248291 -2.4522247 -1.5746765 -3.409195c-0.7498474 -0.95695496 -1.8808899 -1.7287903 -3.3930664 -2.315506c-1.5059509 -0.5924072 -3.1587524 -0.88861084 -4.9584045 -0.88861084z" fill-rule="evenodd"/><path fill="#ff0000" d="m433.56046 221.77705c-3.524292 4.2892456 -6.130005 8.595581 -7.817169 12.919006c-1.4434509 3.7253265 -2.1651917 7.6215363 -2.1651917 11.688644c0 4.6139374 0.9654236 9.074066 2.8963013 13.380402c1.9308472 4.3063354 4.292877 8.065857 7.0860596 11.278503l3.627411 0c-5.605133 -8.202545 -8.407684 -16.413635 -8.407684 -24.63327c0 -3.2297516 0.40304565 -6.4424286 1.209137 -9.6380005c0.6560974 -2.5632935 1.5559387 -5.024063 2.699463 -7.3822937c0.7310791 -1.5208893 2.2308044 -4.058563 4.4990845 -7.6129913z" fill-rule="evenodd"/><path fill="#ff0000" d="m440.50595 232.77359l10.094849 13.072815l-10.910309 14.149414l6.1300354 0l7.845276 -10.740219l1.6309204 2.2813263l6.1300354 8.458893l6.214386 0l-11.107147 -14.405746l10.319794 -12.816483l-6.0456543 0l-5.0333557 6.4338837c-0.69363403 0.871521 -1.4528503 1.8712006 -2.2776794 2.999054c-0.52490234 -0.82025146 -1.2185059 -1.8370361 -2.080841 -3.0503235l-4.5834656 -6.382614z" fill-rule="evenodd"/><path fill="#ff0000" d="m471.5497 221.77705c2.2870483 3.5886078 3.7961426 6.1519012 4.5272217 7.6898804c1.1435242 2.3582458 2.033966 4.8190002 2.6713562 7.382309c0.8060913 3.1613922 1.209137 6.348419 1.209137 9.561096c0 8.219635 -2.8025818 16.430725 -8.407715 24.63327l3.627411 0c2.7744446 -3.2126465 5.1302185 -6.972168 7.067322 -11.278503c1.9433594 -4.3063354 2.915039 -8.766464 2.915039 -13.380402c0 -4.067108 -0.7217102 -7.963318 -2.1651917 -11.688644c-1.6871338 -4.3234253 -4.292877 -8.629761 -7.817169 -12.919006z" fill-rule="evenodd"/><path fill="#000000" fill-opacity="0.0" d="m207.50525 43.632545l32.314957 45.543304" fill-rule="evenodd"/><path stroke="#bf9000" stroke-width="4.0" stroke-linejoin="round" stroke-linecap="butt" d="m207.50525 43.632545l18.426773 25.969902" fill-rule="evenodd"/><path fill="#bf9000" stroke="#bf9000" stroke-width="4.0" stroke-linecap="butt" d="m220.54369 73.425705l15.89267 10.981079l-5.1159973 -18.627602z" fill-rule="evenodd"/><path fill="#000000" fill-opacity="0.0" d="m593.4895 241.0l55.84253 0" fill-rule="evenodd"/><path stroke="#b45f06" stroke-width="4.0" stroke-linejoin="round" stroke-linecap="butt" d="m593.4895 241.0l31.84253 0" fill-rule="evenodd"/><path fill="#b45f06" stroke="#b45f06" stroke-width="4.0" stroke-linecap="butt" d="m625.33203 247.60693l18.152405 -6.6069336l-18.152405 -6.6069336z" fill-rule="evenodd"/><path fill="#000000" fill-opacity="0.0" d="m234.26115 28.244095l135.1811 0l0 49.228348l-135.1811 0z" fill-rule="evenodd"/><path fill="#000000" d="m244.7924 45.161594l0 -2.703125l2.921875 0l0 2.703125l-2.921875 0zm0 12.5625l0 -11.0625l2.921875 0l0 11.0625l-2.921875 0zm15.988144 0l-2.921875 0l0 -5.640625q0 -1.796875 -0.1875 -2.3125q-0.1875 -0.53125 -0.609375 -0.828125q-0.421875 -0.296875 -1.015625 -0.296875q-0.765625 0 -1.375 0.421875q-0.59375 0.421875 -0.828125 1.109375q-0.21875 0.6875 -0.21875 2.53125l0 5.015625l-2.921875 0l0 -11.0625l2.71875 0l0 1.625q1.4375 -1.875 3.640625 -1.875q0.96875 0 1.765625 0.359375q0.8125 0.34375 1.21875 0.890625q0.40625 0.53125 0.5625 1.21875q0.171875 0.6875 0.171875 1.96875l0 6.875zm2.8874512 -11.0625l2.71875 0l0 1.625q0.53125 -0.828125 1.4375 -1.34375q0.90625 -0.53125 2.015625 -0.53125q1.921875 0 3.265625 1.515625q1.34375 1.5 1.34375 4.203125q0 2.765625 -1.359375 4.3125q-1.34375 1.53125 -3.265625 1.53125q-0.921875 0 -1.671875 -0.359375q-0.734375 -0.375 -1.5625 -1.25l0 5.5625l-2.921875 0l0 -15.265625zm2.890625 5.34375q0 1.859375 0.734375 2.75q0.75 0.890625 1.8125 0.890625q1.015625 0 1.6875 -0.8125q0.6875 -0.8125 0.6875 -2.6875q0 -1.734375 -0.703125 -2.578125q-0.703125 -0.84375 -1.734375 -0.84375q-1.0625 0 -1.78125 0.828125q-0.703125 0.828125 -0.703125 2.453125zm17.496826 5.71875l0 -1.65625q-0.609375 0.890625 -1.59375 1.40625q-0.984375 0.5 -2.078125 0.5q-1.109375 0 -2.0 -0.484375q-0.875 -0.5 -1.28125 -1.375q-0.390625 -0.890625 -0.390625 -2.453125l0 -7.0l2.921875 0l0 5.078125q0 2.34375 0.15625 2.875q0.171875 0.515625 0.59375 0.828125q0.4375 0.296875 1.09375 0.296875q0.75 0 1.34375 -0.40625q0.59375 -0.40625 0.8125 -1.015625q0.21875 -0.609375 0.21875 -2.984375l0 -4.671875l2.921875 0l0 11.0625l-2.71875 0zm10.824951 -11.0625l0 2.328125l-2.0 0l0 4.46875q0 1.34375 0.046875 1.578125q0.0625 0.21875 0.265625 0.375q0.203125 0.140625 0.5 0.140625q0.40625 0 1.171875 -0.28125l0.25 2.265625q-1.015625 0.4375 -2.3125 0.4375q-0.796875 0 -1.4375 -0.265625q-0.625 -0.265625 -0.921875 -0.6875q-0.296875 -0.421875 -0.40625 -1.140625q-0.09375 -0.515625 -0.09375 -2.0625l0 -4.828125l-1.34375 0l0 -2.328125l1.34375 0l0 -2.1875l2.9375 -1.71875l0 3.90625l2.0 0zm2.5868225 2.921875l0 -2.921875l2.921875 0l0 2.921875l-2.921875 0zm0 8.140625l0 -2.921875l2.921875 0l0 2.921875l-2.921875 0zm11.059326 0l3.984375 -5.703125l-3.8125 -5.359375l3.5625 0l1.96875 3.046875l2.0625 -3.046875l3.421875 0l-3.734375 5.234375l4.078125 5.828125l-3.578125 0l-2.25 -3.421875l-2.28125 3.421875l-3.421875 0z" fill-rule="nonzero"/><path fill="#000000" fill-opacity="0.0" d="m615.4921 182.22572l129.32281 0l0 45.543304l-129.32281 0z" fill-rule="evenodd"/><path fill="#000000" d="m625.3515 206.01822q0 -1.453125 0.71875 -2.8125q0.71875 -1.375 2.03125 -2.09375q1.3125 -0.71875 2.9375 -0.71875q2.515625 0 4.109375 1.640625q1.609375 1.625 1.609375 4.109375q0 2.515625 -1.625 4.171875q-1.609375 1.640625 -4.0625 1.640625q-1.53125 0 -2.90625 -0.6875q-1.375 -0.6875 -2.09375 -2.015625q-0.71875 -1.328125 -0.71875 -3.234375zm3.0 0.15625q0 1.640625 0.78125 2.515625q0.78125 0.875 1.921875 0.875q1.140625 0 1.921875 -0.875q0.78125 -0.875 0.78125 -2.53125q0 -1.625 -0.78125 -2.5q-0.78125 -0.875 -1.921875 -0.875q-1.140625 0 -1.921875 0.875q-0.78125 0.875 -0.78125 2.515625zm17.981201 5.53125l0 -1.65625q-0.609375 0.890625 -1.59375 1.40625q-0.984375 0.5 -2.078125 0.5q-1.109375 0 -2.0 -0.484375q-0.875 -0.5 -1.28125 -1.375q-0.390625 -0.890625 -0.390625 -2.453125l0 -7.0l2.921875 0l0 5.078125q0 2.34375 0.15625 2.875q0.171875 0.515625 0.59375 0.828125q0.4375 0.296875 1.09375 0.296875q0.75 0 1.34375 -0.40625q0.59375 -0.40625 0.8125 -1.015625q0.21875 -0.609375 0.21875 -2.984375l0 -4.671875l2.921875 0l0 11.0625l-2.71875 0zm10.824951 -11.0625l0 2.328125l-2.0 0l0 4.46875q0 1.34375 0.046875 1.578125q0.0625 0.21875 0.265625 0.375q0.203125 0.140625 0.5 0.140625q0.40625 0 1.171875 -0.28125l0.25 2.265625q-1.015625 0.4375 -2.3125 0.4375q-0.796875 0 -1.4375 -0.265625q-0.625 -0.265625 -0.921875 -0.6875q-0.296875 -0.421875 -0.40625 -1.140625q-0.09375 -0.515625 -0.09375 -2.0625l0 -4.828125l-1.34375 0l0 -2.328125l1.34375 0l0 -2.1875l2.9375 -1.71875l0 3.90625l2.0 0zm1.946167 0l2.71875 0l0 1.625q0.53125 -0.828125 1.4375 -1.34375q0.90625 -0.53125 2.015625 -0.53125q1.921875 0 3.265625 1.515625q1.34375 1.5 1.34375 4.203125q0 2.765625 -1.359375 4.3125q-1.34375 1.53125 -3.265625 1.53125q-0.921875 0 -1.671875 -0.359375q-0.734375 -0.375 -1.5625 -1.25l0 5.5625l-2.921875 0l0 -15.265625zm2.890625 5.34375q0 1.859375 0.734375 2.75q0.75 0.890625 1.8125 0.890625q1.015625 0 1.6875 -0.8125q0.6875 -0.8125 0.6875 -2.6875q0 -1.734375 -0.703125 -2.578125q-0.703125 -0.84375 -1.734375 -0.84375q-1.0625 0 -1.78125 0.828125q-0.703125 0.828125 -0.703125 2.453125zm17.496826 5.71875l0 -1.65625q-0.609375 0.890625 -1.59375 1.40625q-0.984375 0.5 -2.078125 0.5q-1.109375 0 -2.0 -0.484375q-0.875 -0.5 -1.28125 -1.375q-0.390625 -0.890625 -0.390625 -2.453125l0 -7.0l2.921875 0l0 5.078125q0 2.34375 0.15625 2.875q0.171875 0.515625 0.59375 0.828125q0.4375 0.296875 1.09375 0.296875q0.75 0 1.34375 -0.40625q0.59375 -0.40625 0.8125 -1.015625q0.21875 -0.609375 0.21875 -2.984375l0 -4.671875l2.921875 0l0 11.0625l-2.71875 0zm10.824951 -11.0625l0 2.328125l-2.0 0l0 4.46875q0 1.34375 0.046875 1.578125q0.0625 0.21875 0.265625 0.375q0.203125 0.140625 0.5 0.140625q0.40625 0 1.171875 -0.28125l0.25 2.265625q-1.015625 0.4375 -2.3125 0.4375q-0.796875 0 -1.4375 -0.265625q-0.625 -0.265625 -0.921875 -0.6875q-0.296875 -0.421875 -0.40625 -1.140625q-0.09375 -0.515625 -0.09375 -2.0625l0 -4.828125l-1.34375 0l0 -2.328125l1.34375 0l0 -2.1875l2.9375 -1.71875l0 3.90625l2.0 0zm2.586792 2.921875l0 -2.921875l2.921875 0l0 2.921875l-2.921875 0zm0 8.140625l0 -2.921875l2.921875 0l0 2.921875l-2.921875 0zm11.074951 -11.0625l3.125 0l2.640625 7.859375l2.578125 -7.859375l3.03125 0l-3.90625 10.640625l-0.6875 1.9375q-0.390625 0.96875 -0.75 1.46875q-0.34375 0.515625 -0.796875 0.828125q-0.453125 0.328125 -1.109375 0.5q-0.65625 0.171875 -1.5 0.171875q-0.84375 0 -1.65625 -0.171875l-0.25 -2.296875q0.6875 0.140625 1.234375 0.140625q1.015625 0 1.5 -0.609375q0.5 -0.59375 0.765625 -1.515625l-4.21875 -11.09375z" fill-rule="nonzero"/><path fill="#000000" fill-opacity="0.0" d="m4.3950133 257.04462l151.37007 0l0 45.543304l-151.37007 0z" fill-rule="evenodd"/><path fill="#000000" d="m13.645013 275.46213l1.625 0l0 -0.828125q0 -1.390625 0.296875 -2.078125q0.296875 -0.6875 1.093751 -1.125q0.796875 -0.4375 2.015625 -0.4375q1.25 0 2.453125 0.375l-0.40625 2.046875q-0.6875 -0.171875 -1.34375 -0.171875q-0.625 0 -0.90625 0.296875q-0.28125 0.296875 -0.28125 1.140625l0 0.78125l2.1875 0l0 2.296875l-2.1875 0l0 8.765625l-2.921876 0l0 -8.765625l-1.625 0l0 -2.296875zm15.664933 11.0625l0 -1.65625q-0.609375 0.890625 -1.59375 1.40625q-0.984375 0.5 -2.078125 0.5q-1.109375 0 -2.0 -0.484375q-0.875 -0.5 -1.28125 -1.375q-0.390625 -0.890625 -0.390625 -2.453125l0 -7.0l2.921875 0l0 5.078125q0 2.34375 0.15625 2.875q0.171875 0.515625 0.59375 0.828125q0.4375 0.296875 1.09375 0.296875q0.75 0 1.34375 -0.40625q0.59375 -0.40625 0.8125 -1.015625q0.21875 -0.609375 0.21875 -2.984375l0 -4.671875l2.921873 0l0 11.0625l-2.718748 0zm15.809324 0l-2.921875 0l0 -5.640625q0 -1.796875 -0.1875 -2.3125q-0.1875 -0.53125 -0.609375 -0.828125q-0.421875 -0.296875 -1.015625 -0.296875q-0.765625 0 -1.375 0.421875q-0.59375 0.421875 -0.828125 1.109375q-0.21875 0.6875 -0.21875 2.53125l0 5.015625l-2.921875 0l0 -11.0625l2.71875 0l0 1.625q1.4375 -1.875 3.640625 -1.875q0.96875 0 1.765625 0.359375q0.8125 0.34375 1.21875 0.890625q0.40625 0.53125 0.5625 1.21875q0.171875 0.6875 0.171875 1.96875l0 6.875zm12.606201 -7.796875l-2.875 0.53125q-0.15625 -0.875 -0.671875 -1.3125q-0.515625 -0.4375 -1.328125 -0.4375q-1.09375 0 -1.75 0.765625q-0.65625 0.75 -0.65625 2.515625q0 1.96875 0.65625 2.78125q0.671875 0.8125 1.78125 0.8125q0.84375 0 1.375 -0.46875q0.53125 -0.46875 0.75 -1.625l2.859375 0.484375q-0.4375 1.984375 -1.71875 3.0q-1.265625 1.0 -3.390625 1.0q-2.4375 0 -3.875 -1.53125q-1.4375 -1.53125 -1.4375 -4.234375q0 -2.75 1.4375 -4.265625q1.453125 -1.53125 3.921875 -1.53125q2.015625 0 3.203125 0.875q1.203125 0.859375 1.71875 2.640625zm7.2991943 -3.265625l0 2.328125l-2.0 0l0 4.46875q0 1.34375 0.046875 1.578125q0.0625 0.21875 0.265625 0.375q0.203125 0.140625 0.5 0.140625q0.40625 0 1.171875 -0.28125l0.25 2.265625q-1.015625 0.4375 -2.3125 0.4375q-0.796875 0 -1.4375 -0.265625q-0.625 -0.265625 -0.921875 -0.6875q-0.296875 -0.421875 -0.40625 -1.140625q-0.09375 -0.515625 -0.09375 -2.0625l0 -4.828125l-1.34375 0l0 -2.328125l1.34375 0l0 -2.1875l2.9375 -1.71875l0 3.90625l2.0 0zm2.0243073 -1.5l0 -2.703125l2.921875 0l0 2.703125l-2.921875 0zm0 12.5625l0 -11.0625l2.921875 0l0 11.0625l-2.921875 0zm5.253769 -5.6875q0 -1.453125 0.71875 -2.8125q0.71875 -1.375 2.03125 -2.09375q1.3125 -0.71875 2.9375 -0.71875q2.515625 0 4.109375 1.640625q1.609375 1.625 1.609375 4.109375q0 2.515625 -1.625 4.171875q-1.609375 1.640625 -4.0625 1.640625q-1.53125 0 -2.90625 -0.6875q-1.375 -0.6875 -2.09375 -2.015625q-0.71875 -1.328125 -0.71875 -3.234375zm3.0 0.15625q0 1.640625 0.78125 2.515625q0.78125 0.875 1.921875 0.875q1.140625 0 1.921875 -0.875q0.78125 -0.875 0.78125 -2.53125q0 -1.625 -0.78125 -2.5q-0.78125 -0.875 -1.921875 -0.875q-1.140625 0 -1.921875 0.875q-0.78125 0.875 -0.78125 2.515625zm20.762451 5.53125l-2.921875 0l0 -5.640625q0 -1.796875 -0.1875 -2.3125q-0.1875 -0.53125 -0.609375 -0.828125q-0.421875 -0.296875 -1.015625 -0.296875q-0.765625 0 -1.375 0.421875q-0.59375 0.421875 -0.828125 1.109375q-0.21875 0.6875 -0.21875 2.53125l0 5.015625l-2.921875 0l0 -11.0625l2.71875 0l0 1.625q1.4375 -1.875 3.640625 -1.875q0.96875 0 1.765625 0.359375q0.8125 0.34375 1.21875 0.890625q0.40625 0.53125 0.5625 1.21875q0.171875 0.6875 0.171875 1.96875l0 6.875zm18.531845 -7.796875l-2.875 0.53125q-0.15625 -0.875 -0.671875 -1.3125q-0.515625 -0.4375 -1.328125 -0.4375q-1.09375 0 -1.75 0.765625q-0.65625 0.75 -0.65625 2.515625q0 1.96875 0.65625 2.78125q0.671875 0.8125 1.78125 0.8125q0.84375 0 1.375 -0.46875q0.53125 -0.46875 0.75 -1.625l2.859375 0.484375q-0.4375 1.984375 -1.71875 3.0q-1.265625 1.0 -3.390625 1.0q-2.4375 0 -3.875 -1.53125q-1.4375 -1.53125 -1.4375 -4.234375q0 -2.75 1.4375 -4.265625q1.453125 -1.53125 3.921875 -1.53125q2.015625 0 3.203125 0.875q1.203125 0.859375 1.71875 2.640625zm4.4085693 0.109375l-2.65625 -0.484375q0.453125 -1.59375 1.546875 -2.359375q1.09375 -0.78125 3.25 -0.78125q1.953125 0 2.90625 0.46875q0.96875 0.453125 1.359375 1.171875q0.390625 0.71875 0.390625 2.625l-0.03125 3.40625q0 1.46875 0.125 2.15625q0.140625 0.6875 0.53125 1.484375l-2.890625 0q-0.109375 -0.296875 -0.28125 -0.859375q-0.078125 -0.265625 -0.109375 -0.34375q-0.75 0.71875 -1.609375 1.09375q-0.84375 0.359375 -1.8125 0.359375q-1.703125 0 -2.6875 -0.921875q-0.984375 -0.9375 -0.984375 -2.34375q0 -0.9375 0.4375 -1.671875q0.453125 -0.734375 1.25 -1.125q0.8125 -0.390625 2.34375 -0.6875q2.046875 -0.390625 2.84375 -0.71875l0 -0.296875q0 -0.84375 -0.421875 -1.203125q-0.421875 -0.359375 -1.578125 -0.359375q-0.78125 0 -1.21875 0.3125q-0.4375 0.3125 -0.703125 1.078125zm3.921875 2.375q-0.5625 0.1875 -1.78125 0.453125q-1.21875 0.25 -1.59375 0.5q-0.578125 0.40625 -0.578125 1.03125q0 0.625 0.453125 1.078125q0.46875 0.4375 1.171875 0.4375q0.796875 0 1.515625 -0.515625q0.53125 -0.40625 0.6875 -0.96875q0.125 -0.375 0.125 -1.4375l0 -0.578125zm5.752327 5.3125l0 -15.265625l2.921875 0l0 15.265625l-2.921875 0zm5.925644 0l0 -15.265625l2.921875 0l0 15.265625l-2.921875 0z" fill-rule="nonzero"/><path fill="#000000" fill-opacity="0.0" d="m107.25328 296.28085c0 3.6087646 12.314964 -2.0186768 24.629929 7.2175293c12.314957 9.236237 24.629913 33.33612 24.629913 66.67221" fill-rule="evenodd"/><path stroke="#bf9000" stroke-width="4.0" stroke-linejoin="round" stroke-linecap="butt" d="m107.25328 296.28085c0 3.6087646 12.314964 -2.0186768 24.629929 7.21756c6.1574707 4.618103 12.314957 12.952118 16.93306 24.298615c2.3090668 5.673279 4.2332764 12.09964 5.5802155 19.191193c0.33674622 1.7729492 0.6374054 3.5874023 0.89897156 5.442047c0.13078308 0.92733765 0.25180054 1.8647156 0.3626709 2.8119812c0.027709961 0.23684692 0.05479431 0.47424316 0.08123779 0.7123108l0.056915283 0.52645874" fill-rule="evenodd"/><path fill="#bf9000" stroke="#bf9000" stroke-width="4.0" stroke-linecap="butt" d="m155.79628 356.48102l-4.7274017 -4.256958l5.1384583 12.106934l3.8459015 -12.577393z" fill-rule="evenodd"/></g></svg>