<svg version="1.1" viewBox="0.0 0.0 590.2519685039371 263.21259842519686" fill="none" stroke="none" stroke-linecap="square" stroke-miterlimit="10" xmlns:xlink="http://www.w3.org/1999/xlink" xmlns="http://www.w3.org/2000/svg"><clipPath id="p.0"><path d="m0 0l590.25195 0l0 263.2126l-590.25195 0l0 -263.2126z" clip-rule="nonzero"/></clipPath><g clip-path="url(#p.0)"><path fill="#000000" fill-opacity="0.0" d="m0 0l590.25195 0l0 263.2126l-590.25195 0z" fill-rule="evenodd"/><path fill="#3d85c6" d="m27.325459 51.75853l151.3071 0l0 48.0l-151.3071 0z" fill-rule="evenodd"/><path stroke="#ffffff" stroke-width="2.0" stroke-linejoin="round" stroke-linecap="butt" d="m27.325459 51.75853l151.3071 0l0 48.0l-151.3071 0z" fill-rule="evenodd"/><path fill="#ffffff" d="m66.01964 67.97291l6.109375 0q1.8125 0 2.6875 0.15625q0.890625 0.140625 1.59375 0.625q0.703125 0.484375 1.171875 1.28125q0.46875 0.796875 0.46875 1.78125q0 1.0625 -0.578125 1.96875q-0.578125 0.890625 -1.5625 1.34375q1.390625 0.40625 2.140625 1.390625q0.75 0.96875 0.75 2.296875q0 1.03125 -0.484375 2.015625q-0.484375 0.984375 -1.328125 1.578125q-0.828125 0.59375 -2.046875 0.71875q-0.78125 0.09375 -3.71875 0.109375l-5.203125 0l0 -15.265625zm3.078125 2.546875l0 3.515625l2.03125 0q1.796875 0 2.234375 -0.046875q0.796875 -0.09375 1.25 -0.546875q0.453125 -0.453125 0.453125 -1.1875q0 -0.703125 -0.390625 -1.140625q-0.390625 -0.453125 -1.171875 -0.546875q-0.453125 -0.046875 -2.625 -0.046875l-1.78125 0zm0 6.0625l0 4.078125l2.859375 0q1.671875 0 2.109375 -0.09375q0.6875 -0.125 1.109375 -0.609375q0.4375 -0.484375 0.4375 -1.296875q0 -0.6875 -0.328125 -1.15625q-0.328125 -0.484375 -0.96875 -0.703125q-0.625 -0.21875 -2.71875 -0.21875l-2.5 0zm14.480621 -1.03125l-2.65625 -0.484375q0.453125 -1.59375 1.546875 -2.359375q1.09375 -0.78125 3.25 -0.78125q1.953125 0 2.90625 0.46875q0.96875 0.453125 1.359375 1.171875q0.390625 0.71875 0.390625 2.625l-0.03125 3.40625q0 1.46875 0.125 2.15625q0.140625 0.6875 0.53125 1.484375l-2.890625 0q-0.109375 -0.296875 -0.28125 -0.859375q-0.078125 -0.265625 -0.109375 -0.34375q-0.75 0.71875 -1.609375 1.09375q-0.84375 0.359375 -1.8125 0.359375q-1.703125 0 -2.6875 -0.921875q-0.984375 -0.9375 -0.984375 -2.34375q0 -0.9375 0.4375 -1.671875q0.453125 -0.734375 1.25 -1.125q0.8125 -0.390625 2.34375 -0.6875q2.046875 -0.390625 2.84375 -0.71875l0 -0.296875q0 -0.84375 -0.421875 -1.203125q-0.421875 -0.359375 -1.578125 -0.359375q-0.78125 0 -1.21875 0.3125q-0.4375 0.3125 -0.703125 1.078125zm3.921875 2.375q-0.5625 0.1875 -1.78125 0.453125q-1.21875 0.25 -1.59375 0.5q-0.578125 0.40625 -0.578125 1.03125q0 0.625 0.453125 1.078125q0.46875 0.4375 1.171875 0.4375q0.796875 0 1.515625 -0.515625q0.53125 -0.40625 0.6875 -0.96875q0.125 -0.375 0.125 -1.4375l0 -0.578125zm15.814819 5.3125l-2.921875 0l0 -5.640625q0 -1.796875 -0.1875 -2.3125q-0.1875 -0.53125 -0.609375 -0.828125q-0.421875 -0.296875 -1.015625 -0.296875q-0.765625 0 -1.375 0.421875q-0.59375 0.421875 -0.828125 1.109375q-0.21875 0.6875 -0.21875 2.53125l0 5.015625l-2.921875 0l0 -11.0625l2.71875 0l0 1.625q1.4375 -1.875 3.640625 -1.875q0.96875 0 1.765625 0.359375q0.8125 0.34375 1.21875 0.890625q0.40625 0.53125 0.5625 1.21875q0.171875 0.6875 0.171875 1.96875l0 6.875zm5.153076 -7.6875l-2.65625 -0.484375q0.453125 -1.59375 1.546875 -2.359375q1.09375 -0.78125 3.25 -0.78125q1.953125 0 2.90625 0.46875q0.96875 0.453125 1.359375 1.171875q0.390625 0.71875 0.390625 2.625l-0.03125 3.40625q0 1.46875 0.125 2.15625q0.140625 0.6875 0.53125 1.484375l-2.890625 0q-0.109375 -0.296875 -0.28125 -0.859375q-0.078125 -0.265625 -0.109375 -0.34375q-0.75 0.71875 -1.609375 1.09375q-0.84375 0.359375 -1.8125 0.359375q-1.703125 0 -2.6875 -0.921875q-0.984375 -0.9375 -0.984375 -2.34375q0 -0.9375 0.4375 -1.671875q0.453125 -0.734375 1.25 -1.125q0.8125 -0.390625 2.34375 -0.6875q2.046875 -0.390625 2.84375 -0.71875l0 -0.296875q0 -0.84375 -0.421875 -1.203125q-0.421875 -0.359375 -1.578125 -0.359375q-0.78125 0 -1.21875 0.3125q-0.4375 0.3125 -0.703125 1.078125zm3.921875 2.375q-0.5625 0.1875 -1.78125 0.453125q-1.21875 0.25 -1.59375 0.5q-0.578125 0.40625 -0.578125 1.03125q0 0.625 0.453125 1.078125q0.46875 0.4375 1.171875 0.4375q0.796875 0 1.515625 -0.515625q0.53125 -0.40625 0.6875 -0.96875q0.125 -0.375 0.125 -1.4375l0 -0.578125zm15.814819 5.3125l-2.921875 0l0 -5.640625q0 -1.796875 -0.1875 -2.3125q-0.1875 -0.53125 -0.609375 -0.828125q-0.421875 -0.296875 -1.015625 -0.296875q-0.765625 0 -1.375 0.421875q-0.59375 0.421875 -0.828125 1.109375q-0.21875 0.6875 -0.21875 2.53125l0 5.015625l-2.921875 0l0 -11.0625l2.71875 0l0 1.625q1.4375 -1.875 3.640625 -1.875q0.96875 0 1.765625 0.359375q0.8125 0.34375 1.21875 0.890625q0.40625 0.53125 0.5625 1.21875q0.171875 0.6875 0.171875 1.96875l0 6.875zm5.153076 -7.6875l-2.65625 -0.484375q0.453125 -1.59375 1.546875 -2.359375q1.09375 -0.78125 3.25 -0.78125q1.953125 0 2.90625 0.46875q0.96875 0.453125 1.359375 1.171875q0.390625 0.71875 0.390625 2.625l-0.03125 3.40625q0 1.46875 0.125 2.15625q0.140625 0.6875 0.53125 1.484375l-2.890625 0q-0.109375 -0.296875 -0.28125 -0.859375q-0.078125 -0.265625 -0.109375 -0.34375q-0.75 0.71875 -1.609375 1.09375q-0.84375 0.359375 -1.8125 0.359375q-1.703125 0 -2.6875 -0.921875q-0.984375 -0.9375 -0.984375 -2.34375q0 -0.9375 0.4375 -1.671875q0.453125 -0.734375 1.25 -1.125q0.8125 -0.390625 2.34375 -0.6875q2.046875 -0.390625 2.84375 -0.71875l0 -0.296875q0 -0.84375 -0.421875 -1.203125q-0.421875 -0.359375 -1.578125 -0.359375q-0.78125 0 -1.21875 0.3125q-0.4375 0.3125 -0.703125 1.078125zm3.921875 2.375q-0.5625 0.1875 -1.78125 0.453125q-1.21875 0.25 -1.59375 0.5q-0.578125 0.40625 -0.578125 1.03125q0 0.625 0.453125 1.078125q0.46875 0.4375 1.171875 0.4375q0.796875 0 1.515625 -0.515625q0.53125 -0.40625 0.6875 -0.96875q0.125 -0.375 0.125 -1.4375l0 -0.578125z" fill-rule="nonzero"/><path fill="#3d85c6" d="m27.325459 99.75853l151.3071 0l0 48.0l-151.3071 0z" fill-rule="evenodd"/><path stroke="#ffffff" stroke-width="2.0" stroke-linejoin="round" stroke-linecap="butt" d="m27.325459 99.75853l151.3071 0l0 48.0l-151.3071 0z" fill-rule="evenodd"/><path fill="#ffffff" d="m66.56622 123.69166q0 -2.328125 0.703125 -3.90625q0.515625 -1.171875 1.421875 -2.09375q0.90625 -0.921875 1.96875 -1.375q1.4375 -0.609375 3.296875 -0.609375q3.375 0 5.390625 2.09375q2.03125 2.09375 2.03125 5.828125q0 3.6875 -2.015625 5.7812424q-2.0 2.09375 -5.359375 2.09375q-3.40625 0 -5.421875 -2.078125q-2.015625 -2.0781174 -2.015625 -5.7343674zm3.1875 -0.09375q0 2.59375 1.1875 3.9375q1.203125 1.3281174 3.046875 1.3281174q1.84375 0 3.015625 -1.3281174q1.1875 -1.328125 1.1875 -3.984375q0 -2.625 -1.15625 -3.90625q-1.140625 -1.296875 -3.046875 -1.296875q-1.90625 0 -3.078125 1.3125q-1.15625 1.296875 -1.15625 3.9375zm16.808456 7.6406174l-2.921875 0l0 -11.062492l2.71875 0l0 1.578125q0.703125 -1.125 1.25 -1.46875q0.5625 -0.359375 1.265625 -0.359375q1.0 0 1.9375 0.5625l-0.90625 2.546875q-0.75 -0.484375 -1.375 -0.484375q-0.625 0 -1.046875 0.34375q-0.421875 0.328125 -0.671875 1.21875q-0.25 0.890625 -0.25 3.703125l0 3.4218674zm7.690689 -7.6874924l-2.65625 -0.484375q0.453125 -1.59375 1.546875 -2.359375q1.09375 -0.78125 3.25 -0.78125q1.953125 0 2.90625 0.46875q0.96875 0.453125 1.359375 1.171875q0.390625 0.71875 0.390625 2.625l-0.03125 3.40625q0 1.4687424 0.125 2.1562424q0.140625 0.6875 0.53125 1.484375l-2.890625 0q-0.109375 -0.296875 -0.28125 -0.859375q-0.078125 -0.265625 -0.109375 -0.34375q-0.75 0.71875 -1.609375 1.09375q-0.84375 0.359375 -1.8125 0.359375q-1.703125 0 -2.6875 -0.921875q-0.984375 -0.9375 -0.984375 -2.34375q0 -0.9374924 0.4375 -1.6718674q0.453125 -0.734375 1.25 -1.125q0.8125 -0.390625 2.34375 -0.6875q2.046875 -0.390625 2.84375 -0.71875l0 -0.296875q0 -0.84375 -0.421875 -1.203125q-0.421875 -0.359375 -1.578125 -0.359375q-0.78125 0 -1.21875 0.3125q-0.4375 0.3125 -0.703125 1.078125zm3.921875 2.375q-0.5625 0.1875 -1.78125 0.453125q-1.21875 0.25 -1.59375 0.5q-0.578125 0.40625 -0.578125 1.03125q0 0.6249924 0.453125 1.0781174q0.46875 0.4375 1.171875 0.4375q0.796875 0 1.515625 -0.515625q0.53125 -0.40625 0.6875 -0.9687424q0.125 -0.375 0.125 -1.4375l0 -0.578125zm15.814819 5.3124924l-2.921875 0l0 -5.6406174q0 -1.796875 -0.1875 -2.3125q-0.1875 -0.53125 -0.609375 -0.828125q-0.421875 -0.296875 -1.015625 -0.296875q-0.765625 0 -1.375 0.421875q-0.59375 0.421875 -0.828125 1.109375q-0.21875 0.6875 -0.21875 2.53125l0 5.0156174l-2.921875 0l0 -11.062492l2.71875 0l0 1.625q1.4375 -1.875 3.640625 -1.875q0.96875 0 1.765625 0.359375q0.8125 0.34375 1.21875 0.890625q0.40625 0.53125 0.5625 1.21875q0.171875 0.6875 0.171875 1.96875l0 6.8749924zm2.6999512 0.734375l3.34375 0.40625q0.078125 0.578125 0.375 0.796875q0.421875 0.3125 1.3125 0.3125q1.15625 0 1.71875 -0.34375q0.390625 -0.234375 0.59375 -0.734375q0.125 -0.375 0.125 -1.34375l0 -1.625q-1.3125 1.796875 -3.3125 1.796875q-2.21875 0 -3.53125 -1.890625q-1.015625 -1.4843674 -1.015625 -3.7031174q0 -2.78125 1.328125 -4.25q1.34375 -1.46875 3.34375 -1.46875q2.046875 0 3.375 1.796875l0 -1.546875l2.734375 0l0 9.921867q0 1.96875 -0.328125 2.9375q-0.3125 0.96875 -0.890625 1.515625q-0.578125 0.546875 -1.5625 0.859375q-0.96875 0.3125 -2.453125 0.3125q-2.8125 0 -4.0 -0.96875q-1.171875 -0.953125 -1.171875 -2.4375q0 -0.140625 0.015625 -0.34375zm2.609375 -6.4999924q0 1.765625 0.671875 2.5937424q0.6875 0.8125 1.6875 0.8125q1.078125 0 1.8125 -0.84375q0.75 -0.8437424 0.75 -2.4843674q0 -1.71875 -0.71875 -2.546875q-0.703125 -0.84375 -1.78125 -0.84375q-1.0625 0 -1.75 0.828125q-0.671875 0.8125 -0.671875 2.484375zm17.090576 2.25l2.90625 0.48436737q-0.546875 1.609375 -1.765625 2.453125q-1.21875 0.828125 -3.03125 0.828125q-2.890625 0 -4.28125 -1.890625q-1.09375 -1.5 -1.09375 -3.8124924q0 -2.75 1.4375 -4.296875q1.4375 -1.5625 3.640625 -1.5625q2.46875 0 3.890625 1.640625q1.421875 1.625 1.359375 4.984375l-7.328125 0q0.03125 1.296875 0.703125 2.0312424q0.6875 0.71875 1.703125 0.71875q0.6875 0 1.15625 -0.375q0.46875 -0.375 0.703125 -1.2031174zm0.171875 -2.96875q-0.03125 -1.265625 -0.65625 -1.921875q-0.625 -0.671875 -1.53125 -0.671875q-0.953125 0 -1.578125 0.703125q-0.625 0.703125 -0.609375 1.890625l4.375 0z" fill-rule="nonzero"/><path fill="#3d85c6" d="m27.325459 195.75853l151.3071 0l0 48.0l-151.3071 0z" fill-rule="evenodd"/><path stroke="#ffffff" stroke-width="2.0" stroke-linejoin="round" stroke-linecap="butt" d="m27.325459 195.75853l151.3071 0l0 48.0l-151.3071 0z" fill-rule="evenodd"/><path fill="#ffffff" d="m88.66851 227.23853l-3.34375 0l-1.328125 -3.46875l-6.109375 0l-1.265625 3.46875l-3.265625 0l5.953125 -15.265625l3.25 0l6.109375 15.265625zm-5.671875 -6.046875l-2.09375 -5.65625l-2.0625 5.65625l4.15625 0zm7.2149963 -5.015625l2.71875 0l0 1.625q0.53125 -0.828125 1.4375 -1.34375q0.90625 -0.53125 2.015625 -0.53125q1.921875 0 3.265625 1.515625q1.34375 1.5 1.34375 4.203125q0 2.765625 -1.359375 4.3125q-1.34375 1.53125 -3.265625 1.53125q-0.921875 0 -1.671875 -0.359375q-0.734375 -0.375 -1.5625 -1.25l0 5.5625l-2.921875 0l0 -15.265625zm2.890625 5.34375q0 1.859375 0.734375 2.75q0.75 0.890625 1.8125 0.890625q1.015625 0 1.6875 -0.8125q0.6875 -0.8125 0.6875 -2.6875q0 -1.734375 -0.703125 -2.578125q-0.703125 -0.84375 -1.734375 -0.84375q-1.0625 0 -1.78125 0.828125q-0.703125 0.828125 -0.703125 2.453125zm10.137451 -5.34375l2.71875 0l0 1.625q0.53125 -0.828125 1.4375 -1.34375q0.90625 -0.53125 2.015625 -0.53125q1.921875 0 3.265625 1.515625q1.34375 1.5 1.34375 4.203125q0 2.765625 -1.359375 4.3125q-1.34375 1.53125 -3.265625 1.53125q-0.921875 0 -1.671875 -0.359375q-0.734375 -0.375 -1.5625 -1.25l0 5.5625l-2.921875 0l0 -15.265625zm2.890625 5.34375q0 1.859375 0.734375 2.75q0.75 0.890625 1.8125 0.890625q1.015625 0 1.6875 -0.8125q0.6875 -0.8125 0.6875 -2.6875q0 -1.734375 -0.703125 -2.578125q-0.703125 -0.84375 -1.734375 -0.84375q-1.0625 0 -1.78125 0.828125q-0.703125 0.828125 -0.703125 2.453125zm10.215576 5.71875l0 -15.265625l2.921875 0l0 15.265625l-2.921875 0zm12.331886 -3.515625l2.90625 0.484375q-0.546875 1.609375 -1.765625 2.453125q-1.21875 0.828125 -3.0312424 0.828125q-2.890625 0 -4.28125 -1.890625q-1.09375 -1.5 -1.09375 -3.8125q0 -2.75 1.4375 -4.296875q1.4375 -1.5625 3.640625 -1.5625q2.4687424 0 3.8906174 1.640625q1.421875 1.625 1.359375 4.984375l-7.3281174 0q0.03125 1.296875 0.703125 2.03125q0.6875 0.71875 1.703125 0.71875q0.6875 0 1.15625 -0.375q0.46874237 -0.375 0.7031174 -1.203125zm0.171875 -2.96875q-0.03125 -1.265625 -0.65625 -1.921875q-0.6249924 -0.671875 -1.5312424 -0.671875q-0.953125 0 -1.578125 0.703125q-0.625 0.703125 -0.609375 1.890625l4.3749924 0z" fill-rule="nonzero"/><path fill="#3d85c6" d="m27.325459 147.75853l151.3071 0l0 48.0l-151.3071 0z" fill-rule="evenodd"/><path stroke="#ffffff" stroke-width="2.0" stroke-linejoin="round" stroke-linecap="butt" d="m27.325459 147.75853l151.3071 0l0 48.0l-151.3071 0z" fill-rule="evenodd"/><path fill="#ffffff" d="m69.664604 179.23853l0 -15.140625l3.078125 0l0 12.5625l7.65625 0l0 2.578125l-10.734375 0zm19.324951 -3.515625l2.90625 0.484375q-0.546875 1.609375 -1.765625 2.453125q-1.21875 0.828125 -3.03125 0.828125q-2.890625 0 -4.28125 -1.890625q-1.09375 -1.5 -1.09375 -3.8125q0 -2.75 1.4375 -4.296875q1.4375 -1.5625 3.640625 -1.5625q2.46875 0 3.890625 1.640625q1.421875 1.625 1.359375 4.984375l-7.328125 0q0.03125 1.296875 0.703125 2.03125q0.6875 0.71875 1.703125 0.71875q0.6875 0 1.15625 -0.375q0.46875 -0.375 0.703125 -1.203125zm0.171875 -2.96875q-0.03125 -1.265625 -0.65625 -1.921875q-0.625 -0.671875 -1.53125 -0.671875q-0.953125 0 -1.578125 0.703125q-0.625 0.703125 -0.609375 1.890625l4.375 0zm5.0648193 -4.578125l2.703125 0l0 1.515625q1.4375 -1.765625 3.4375 -1.765625q1.0625 0 1.84375 0.4375q0.78125 0.4375 1.28125 1.328125q0.734375 -0.890625 1.578125 -1.328125q0.84375 -0.4375 1.796875 -0.4375q1.21875 0 2.0625 0.5q0.84375 0.484375 1.265625 1.453125q0.296875 0.703125 0.296875 2.28125l0 7.078125l-2.921875 0l0 -6.328125q0 -1.640625 -0.3125 -2.125q-0.40625 -0.625 -1.25 -0.625q-0.609375 0 -1.15625 0.375q-0.53125 0.375 -0.78125 1.109375q-0.234375 0.71875 -0.234375 2.28125l0 5.3125l-2.921875 0l0 -6.0625q0 -1.609375 -0.15625 -2.078125q-0.15625 -0.46875 -0.484375 -0.703125q-0.328125 -0.234375 -0.890625 -0.234375q-0.671875 0 -1.21875 0.375q-0.546875 0.359375 -0.78125 1.046875q-0.234375 0.6875 -0.234375 2.28125l0 5.375l-2.921875 0l0 -11.0625zm18.511002 5.375q0 -1.453125 0.71875 -2.8125q0.71875 -1.375 2.03125 -2.09375q1.3125 -0.71875 2.9375 -0.71875q2.515625 0 4.109375 1.640625q1.609375 1.625 1.609375 4.109375q0 2.515625 -1.625 4.171875q-1.609375 1.640625 -4.0625 1.640625q-1.53125 0 -2.90625 -0.6875q-1.375 -0.6875 -2.09375 -2.015625q-0.71875 -1.328125 -0.71875 -3.234375zm3.0 0.15625q0 1.640625 0.78125 2.515625q0.78125 0.875 1.921875 0.875q1.140625 0 1.921875 -0.875q0.78125 -0.875 0.78125 -2.53125q0 -1.625 -0.78125 -2.5q-0.78125 -0.875 -1.921875 -0.875q-1.140625 0 -1.921875 0.875q-0.78125 0.875 -0.78125 2.515625zm20.762444 5.53125l-2.921875 0l0 -5.640625q0 -1.796875 -0.1875 -2.3125q-0.1875 -0.53125 -0.609375 -0.828125q-0.421875 -0.296875 -1.015625 -0.296875q-0.765625 0 -1.375 0.421875q-0.59375 0.421875 -0.828125 1.109375q-0.21875 0.6875 -0.21875 2.53125l0 5.015625l-2.9218674 0l0 -11.0625l2.7187424 0l0 1.625q1.4375 -1.875 3.640625 -1.875q0.96875 0 1.765625 0.359375q0.8125 0.34375 1.21875 0.890625q0.40625 0.53125 0.5625 1.21875q0.171875 0.6875 0.171875 1.96875l0 6.875z" fill-rule="nonzero"/><path fill="#38761d" d="m63.60005 17.551165c-1.5280991 0 -2.7173424 0.26511574 -3.5677261 0.7953472c-0.8460655 0.5261841 -1.4374504 1.2142696 -1.7741508 2.0642586c-0.24605179 0.63142014 -0.36907578 1.5967655 -0.36907578 2.8960323l0 2.0581875l-3.0885773 0l0 2.5499668l3.0885773 0l0 16.793348l3.4770775 0l0 -16.793348l4.020977 0l0 -2.5499668l-4.020977 0l0 -1.784975c0 -1.165699 0.22015 -1.9610462 0.66045 -2.3860416c0.4403 -0.42499352 1.1913986 -0.6374912 2.2533035 -0.6374912c0.6474991 0 1.333847 0.06071472 2.0590515 0.18214035l0.5244751 -2.859604c-1.1914062 -0.2185688 -2.2792053 -0.32785416 -3.2634048 -0.32785416z" fill-rule="evenodd"/><path fill="#38761d" d="m75.6824 24.927853c-0.8158493 0 -1.5647888 0.2185688 -2.2468262 0.6557064c-0.6777115 0.4371376 -1.4180222 1.3417683 -2.2209244 2.713892l0 -2.9324608l-3.1468506 0l0 19.343315l3.4965057 0l0 -10.127007c0 -1.3842697 0.19424438 -2.6592522 0.5827484 -3.8249512c0.2590027 -0.76498985 0.6928253 -1.3620052 1.3014755 -1.791048c0.6086502 -0.4330883 1.2949982 -0.6496334 2.0590515 -0.6496334c0.8546982 0 1.7093964 0.23678207 2.5641022 0.7103481l1.2043457 -3.0417461c-1.2173004 -0.70427704 -2.4151764 -1.0564156 -3.593628 -1.0564156z" fill-rule="evenodd"/><path fill="#38761d" d="m81.27681 25.36499l0 11.98484c0 1.3964119 0.07122803 2.416397 0.21367645 3.0599594c0.2071991 0.9592743 0.5654831 1.7708092 1.074852 2.4346123c0.5136795 0.6597519 1.2971573 1.2081985 2.3504257 1.6453362c1.057579 0.4371376 2.1950226 0.6557045 3.412323 0.6557045c2.7583542 0 4.9404297 -1.0928421 6.5462265 -3.2785263l0 2.8413887l3.1274261 0l0 -19.343315l-3.496498 0l0 10.363792c0 1.6514053 -0.1920929 2.91222 -0.5762787 3.7824478c-0.37986755 0.8661804 -1.0295258 1.5522423 -1.9489746 2.0581894c-0.91944885 0.5018959 -1.9036484 0.75284576 -2.9525986 0.75284576c-1.0489502 0 -1.9295502 -0.24487686 -2.6418 -0.7346344c-0.7122574 -0.49380112 -1.1784515 -1.1717682 -1.3986053 -2.0339012c-0.14244843 -0.5949898 -0.21367645 -1.7485466 -0.21367645 -3.4606667l0 -10.728073z" fill-rule="evenodd"/><path fill="#38761d" d="m103.499016 18.006517l0 3.7703056l3.4965057 0l0 -3.7703056zm0 7.358473l0 19.343315l3.4965057 0l0 -19.343315z" fill-rule="evenodd"/><path fill="#38761d" d="m116.43607 18.60758l-3.4770737 1.9671173l0 4.7902927l-2.5641022 0l0 2.5499668l2.5641022 0l0 11.128782c0 1.9671173 0.14244843 3.2582893 0.42734528 3.87352c0.28490448 0.61117935 0.7770004 1.1049843 1.4763031 1.4814072c0.6993027 0.37642288 1.6835022 0.56463623 2.9525986 0.56463623c0.7770004 0 1.6576004 -0.097141266 2.6418 -0.2914238l-0.505043 -2.8960342c-0.634552 0.084999084 -1.14608 0.12749863 -1.5345764 0.12749863c-0.5180054 0 -0.91729736 -0.07892609 -1.197876 -0.23678207c-0.276268 -0.15785599 -0.47699738 -0.3703537 -0.6021805 -0.63749313c-0.12086487 -0.26713943 -0.1812973 -0.8682022 -0.1812973 -1.8031883l0 -11.310923l3.5159302 0l0 -2.5499668l-3.5159302 0l0 -6.75741z" fill-rule="evenodd"/><path fill="#38761d" d="m130.15013 24.927853c-1.0748596 0 -2.0827942 0.13154793 -3.0238266 0.39463806c-0.9367218 0.25904465 -1.6770248 0.5767784 -2.2209244 0.9532013c-0.72520447 0.48570824 -1.299324 1.0968914 -1.7223511 1.8335476c-0.41872406 0.7326107 -0.62807465 1.5299797 -0.62807465 2.3921108c0 0.9471302 0.25467682 1.8133087 0.7640457 2.5985374c0.51368713 0.78118134 1.2647858 1.3943863 2.2533035 1.8396187c0.992836 0.441185 2.7712936 0.9653435 5.335396 1.5724792c1.903656 0.4492798 3.0950623 0.8196335 3.5742035 1.1110573c0.6863556 0.42499542 1.0295258 1.007843 1.0295258 1.7485466c0 0.8257065 -0.38850403 1.5461693 -1.1654968 2.1613998c-0.77700806 0.61118317 -1.968399 0.91677475 -3.5742035 0.91677475c-1.5928497 0 -2.8338928 -0.34606552 -3.7231293 -1.0382004c-0.8849106 -0.69213486 -1.4244995 -1.6878357 -1.6187439 -2.9871025l-3.4576569 0.5099907c0.38850403 2.0521164 1.2842102 3.6003113 2.6871262 4.6445847c1.4072342 1.0442696 3.4511795 1.5664062 6.1318283 1.5664062c1.6187592 0 3.0691528 -0.26309204 4.3511963 -0.7892761c1.2820587 -0.5302315 2.2619476 -1.277008 2.9396515 -2.240326c0.68203735 -0.9673691 1.023056 -1.9974747 1.023056 -3.0903168c0 -1.1171265 -0.27842712 -2.0521164 -0.8352814 -2.8049622c-0.556839 -0.7528496 -1.3252106 -1.3255806 -2.3050995 -1.718193c-0.9755554 -0.39665985 -2.7000732 -0.90463257 -5.173523 -1.5239067c-1.7093964 -0.4371376 -2.738922 -0.7164192 -3.0885773 -0.83784866c-0.6086502 -0.23070908 -1.0554199 -0.5221348 -1.3403244 -0.8742733c-0.28489685 -0.33999443 -0.4273529 -0.7224903 -0.4273529 -1.1474838c0 -0.6678486 0.3431778 -1.2506981 1.0295258 -1.7485485c0.6863556 -0.49785042 1.8324356 -0.7467766 3.4382248 -0.7467766c1.3597565 0 2.4108582 0.27928352 3.1533356 0.83784676c0.7467804 0.55856323 1.197876 1.3356972 1.3532715 2.331398l3.418808 -0.4371376c-0.22015381 -1.2506981 -0.62161255 -2.2484226 -1.204361 -2.9931736c-0.5827484 -0.7488003 -1.4870911 -1.3417683 -2.713028 -1.7789059c-1.2216034 -0.4371376 -2.6418 -0.6557064 -4.260544 -0.6557064z" fill-rule="evenodd"/><path fill="#f1c232" d="m249.81627 123.301834l116.44096 0l0 -19.212593l38.42517 38.425194l-38.42517 38.4252l0 -19.2126l-116.44096 0z" fill-rule="evenodd"/><path stroke="#000000" stroke-width="2.0" stroke-linejoin="round" stroke-linecap="butt" d="m249.81627 123.301834l116.44096 0l0 -19.212593l38.42517 38.425194l-38.42517 38.4252l0 -19.2126l-116.44096 0z" fill-rule="evenodd"/><path fill="#000000" d="m259.31628 146.83818l2.9375 -0.453125q0.1875 0.859375 0.75 1.3125q0.578125 0.4375 1.609375 0.4375q1.140625 0 1.71875 -0.421875q0.375 -0.296875 0.375 -0.78125q0 -0.328125 -0.203125 -0.546875q-0.21875 -0.21875 -0.984375 -0.390625q-3.53125 -0.78125 -4.484375 -1.421875q-1.3125 -0.90625 -1.3125 -2.5q0 -1.4375 1.125 -2.40625q1.140625 -0.984375 3.53125 -0.984375q2.265625 0 3.375 0.75q1.109375 0.734375 1.515625 2.171875l-2.75 0.515625q-0.1875 -0.640625 -0.6875 -0.984375q-0.484375 -0.34375 -1.40625 -0.34375q-1.15625 0 -1.65625 0.3125q-0.328125 0.234375 -0.328125 0.59375q0 0.3125 0.296875 0.53125q0.390625 0.296875 2.71875 0.828125q2.34375 0.53125 3.28125 1.296875q0.90625 0.78125 0.90625 2.1875q0 1.515625 -1.265625 2.609375q-1.265625 1.09375 -3.765625 1.09375q-2.25 0 -3.578125 -0.90625q-1.3125 -0.921875 -1.71875 -2.5zm12.892944 3.15625l0 -15.265625l2.921875 0l0 15.265625l-2.921875 0zm5.9256287 -12.5625l0 -2.703125l2.921875 0l0 2.703125l-2.921875 0zm0 12.5625l0 -11.0625l2.921875 0l0 11.0625l-2.921875 0zm15.566284 -7.796875l-2.875 0.53125q-0.15625 -0.875 -0.671875 -1.3125q-0.515625 -0.4375 -1.328125 -0.4375q-1.09375 0 -1.75 0.765625q-0.65625 0.75 -0.65625 2.515625q0 1.96875 0.65625 2.78125q0.671875 0.8125 1.78125 0.8125q0.84375 0 1.375 -0.46875q0.53125 -0.46875 0.75 -1.625l2.859375 0.484375q-0.4375 1.984375 -1.71875 3.0q-1.265625 1.0 -3.390625 1.0q-2.4375 0 -3.875 -1.53125q-1.4375 -1.53125 -1.4375 -4.234375q0 -2.75 1.4375 -4.265625q1.453125 -1.53125 3.921875 -1.53125q2.015625 0 3.203125 0.875q1.203125 0.859375 1.71875 2.640625zm8.627319 4.28125l2.90625 0.484375q-0.546875 1.609375 -1.765625 2.453125q-1.21875 0.828125 -3.03125 0.828125q-2.890625 0 -4.28125 -1.890625q-1.09375 -1.5 -1.09375 -3.8125q0 -2.75 1.4375 -4.296875q1.4375 -1.5625 3.640625 -1.5625q2.46875 0 3.890625 1.640625q1.421875 1.625 1.359375 4.984375l-7.328125 0q0.03125 1.296875 0.703125 2.03125q0.6875 0.71875 1.703125 0.71875q0.6875 0 1.15625 -0.375q0.46875 -0.375 0.703125 -1.203125zm0.171875 -2.96875q-0.03125 -1.265625 -0.65625 -1.921875q-0.625 -0.671875 -1.53125 -0.671875q-0.953125 0 -1.578125 0.703125q-0.625 0.703125 -0.609375 1.890625l4.375 0zm10.142944 10.96875l-2.015625 0q-1.59375 -2.40625 -2.4375 -5.0q-0.828125 -2.59375 -0.828125 -5.015625q0 -3.015625 1.03125 -5.6875q0.90625 -2.34375 2.28125 -4.3125l2.0 0q-1.4375 3.15625 -1.96875 5.375q-0.53125 2.203125 -0.53125 4.6875q0 1.703125 0.3125 3.5q0.3125 1.796875 0.875 3.40625q0.359375 1.0625 1.28125 3.046875zm9.102417 -4.484375l-2.921875 0l0 -11.03125q-1.609375 1.5 -3.78125 2.21875l0 -2.65625q1.140625 -0.375 2.484375 -1.421875q1.34375 -1.046875 1.84375 -2.4375l2.375 0l0 15.328125zm4.9241943 -2.921875l2.9375 0l0 2.09375q0 1.265625 -0.21875 2.0q-0.21875 0.734375 -0.828125 1.3125q-0.609375 0.59375 -1.546875 0.921875l-0.578125 -1.203125q0.890625 -0.296875 1.265625 -0.8125q0.375 -0.5 0.390625 -1.390625l-1.421875 0l0 -2.921875zm11.195038 -1.125l2.84375 -0.34375q0.125 1.078125 0.71875 1.65625q0.59375 0.5625 1.4375 0.5625q0.90625 0 1.53125 -0.6875q0.625 -0.6875 0.625 -1.84375q0 -1.109375 -0.59375 -1.75q-0.59375 -0.65625 -1.453125 -0.65625q-0.5625 0 -1.34375 0.21875l0.328125 -2.375q1.1875 0.03125 1.8125 -0.515625q0.625 -0.546875 0.625 -1.453125q0 -0.765625 -0.46875 -1.21875q-0.453125 -0.46875 -1.21875 -0.46875q-0.75 0 -1.28125 0.53125q-0.53125 0.515625 -0.640625 1.515625l-2.703125 -0.46875q0.28125 -1.375 0.84375 -2.203125q0.578125 -0.828125 1.59375 -1.296875q1.015625 -0.484375 2.28125 -0.484375q2.15625 0 3.453125 1.375q1.078125 1.125 1.078125 2.546875q0 2.0 -2.203125 3.203125q1.3125 0.28125 2.09375 1.265625q0.78125 0.96875 0.78125 2.359375q0 2.0 -1.46875 3.421875q-1.453125 1.421875 -3.640625 1.421875q-2.078125 0 -3.453125 -1.1875q-1.359375 -1.203125 -1.578125 -3.125zm11.783569 8.53125q0.859375 -1.84375 1.21875 -2.84375q0.359375 -0.984375 0.65625 -2.265625q0.296875 -1.296875 0.4375 -2.453125q0.15625 -1.171875 0.15625 -2.390625q0 -2.484375 -0.53125 -4.6875q-0.53125 -2.21875 -1.953125 -5.375l1.984375 0q1.578125 2.25 2.4375 4.765625q0.875 2.5 0.875 5.078125q0 2.171875 -0.6875 4.671875q-0.78125 2.78125 -2.578125 5.5l-2.015625 0z" fill-rule="nonzero"/><path fill="#000000" fill-opacity="0.0" d="m314.40945 130.19685l12.692902 0" fill-rule="evenodd"/><path stroke="#ff0000" stroke-width="3.0" stroke-linejoin="round" stroke-linecap="butt" d="m314.40945 130.19685l12.692902 0" fill-rule="evenodd"/><path fill="#000000" fill-opacity="0.0" d="m343.50394 155.56168l0 18.651978l-164.86613 0" fill-rule="evenodd"/><path stroke="#ff0000" stroke-width="2.0" stroke-linejoin="round" stroke-linecap="butt" d="m343.50394 155.56168l0 18.651962l-158.01198 0" fill-rule="evenodd"/><path fill="#ff0000" stroke="#ff0000" stroke-width="2.0" stroke-linecap="butt" d="m185.49197 174.21364l2.2491608 -2.2491608l-6.179535 2.2491608l6.179535 2.249176z" fill-rule="evenodd"/><path fill="#000000" fill-opacity="0.0" d="m338.28348 155.56168l9.700775 0" fill-rule="evenodd"/><path stroke="#ff0000" stroke-width="3.0" stroke-linejoin="round" stroke-linecap="butt" d="m338.28348 155.56168l9.700775 0" fill-rule="evenodd"/><path fill="#3d85c6" d="m414.09186 85.8189l151.30707 0l0 47.999992l-151.30707 0z" fill-rule="evenodd"/><path stroke="#ffffff" stroke-width="2.0" stroke-linejoin="round" stroke-linecap="butt" d="m414.09186 85.8189l151.30707 0l0 47.999992l-151.30707 0z" fill-rule="evenodd"/><path fill="#ffffff" d="m453.3326 109.75202q0 -2.328125 0.703125 -3.90625q0.515625 -1.171875 1.421875 -2.09375q0.90625 -0.921875 1.96875 -1.375q1.4375 -0.609375 3.296875 -0.609375q3.375 0 5.390625 2.09375q2.03125 2.09375 2.03125 5.828125q0 3.6875 -2.015625 5.78125q-2.0 2.09375 -5.359375 2.09375q-3.40625 0 -5.421875 -2.078125q-2.015625 -2.078125 -2.015625 -5.734375zm3.1875 -0.09375q0 2.59375 1.1875 3.9375q1.203125 1.328125 3.046875 1.328125q1.84375 0 3.015625 -1.328125q1.1875 -1.328125 1.1875 -3.984375q0 -2.625 -1.15625 -3.90625q-1.140625 -1.296875 -3.046875 -1.296875q-1.90625 0 -3.078125 1.3125q-1.15625 1.296875 -1.15625 3.9375zm16.808472 7.640625l-2.921875 0l0 -11.0625l2.71875 0l0 1.578125q0.703125 -1.125 1.25 -1.46875q0.5625 -0.359375 1.265625 -0.359375q1.0 0 1.9375 0.5625l-0.90625 2.546875q-0.75 -0.484375 -1.375 -0.484375q-0.625 0 -1.046875 0.34375q-0.421875 0.328125 -0.671875 1.21875q-0.25 0.890625 -0.25 3.703125l0 3.421875zm7.690674 -7.6875l-2.65625 -0.484375q0.453125 -1.59375 1.546875 -2.359375q1.09375 -0.78125 3.25 -0.78125q1.953125 0 2.90625 0.46875q0.96875 0.453125 1.359375 1.171875q0.390625 0.71875 0.390625 2.625l-0.03125 3.40625q0 1.46875 0.125 2.15625q0.140625 0.6875 0.53125 1.484375l-2.890625 0q-0.109375 -0.296875 -0.28125 -0.859375q-0.078125 -0.265625 -0.109375 -0.34375q-0.75 0.71875 -1.609375 1.09375q-0.84375 0.359375 -1.8125 0.359375q-1.703125 0 -2.6875 -0.921875q-0.984375 -0.9375 -0.984375 -2.34375q0 -0.9375 0.4375 -1.671875q0.453125 -0.734375 1.25 -1.125q0.8125 -0.390625 2.34375 -0.6875q2.046875 -0.390625 2.84375 -0.71875l0 -0.296875q0 -0.84375 -0.421875 -1.203125q-0.421875 -0.359375 -1.578125 -0.359375q-0.78125 0 -1.21875 0.3125q-0.4375 0.3125 -0.703125 1.078125zm3.921875 2.375q-0.5625 0.1875 -1.78125 0.453125q-1.21875 0.25 -1.59375 0.5q-0.578125 0.40625 -0.578125 1.03125q0 0.625 0.453125 1.078125q0.46875 0.4375 1.171875 0.4375q0.796875 0 1.515625 -0.515625q0.53125 -0.40625 0.6875 -0.96875q0.125 -0.375 0.125 -1.4375l0 -0.578125zm15.814819 5.3125l-2.921875 0l0 -5.640625q0 -1.796875 -0.1875 -2.3125q-0.1875 -0.53125 -0.609375 -0.828125q-0.421875 -0.296875 -1.015625 -0.296875q-0.765625 0 -1.375 0.421875q-0.59375 0.421875 -0.828125 1.109375q-0.21875 0.6875 -0.21875 2.53125l0 5.015625l-2.921875 0l0 -11.0625l2.71875 0l0 1.625q1.4375 -1.875 3.640625 -1.875q0.96875 0 1.765625 0.359375q0.8125 0.34375 1.21875 0.890625q0.40625 0.53125 0.5625 1.21875q0.171875 0.6875 0.171875 1.96875l0 6.875zm2.6999512 0.734375l3.34375 0.40625q0.078125 0.578125 0.375 0.796875q0.421875 0.3125 1.3125 0.3125q1.15625 0 1.71875 -0.34375q0.390625 -0.234375 0.59375 -0.734375q0.125 -0.375 0.125 -1.34375l0 -1.625q-1.3125 1.796875 -3.3125 1.796875q-2.21875 0 -3.53125 -1.890625q-1.015625 -1.484375 -1.015625 -3.703125q0 -2.78125 1.328125 -4.25q1.34375 -1.46875 3.34375 -1.46875q2.046875 0 3.375 1.796875l0 -1.546875l2.7344055 0l0 9.921875q0 1.96875 -0.328125 2.9375q-0.3125 0.96875 -0.890625 1.515625q-0.578125 0.546875 -1.5625305 0.859375q-0.96875 0.3125 -2.453125 0.3125q-2.8125 0 -4.0 -0.96875q-1.171875 -0.953125 -1.171875 -2.4375q0 -0.140625 0.015625 -0.34375zm2.609375 -6.5q0 1.765625 0.671875 2.59375q0.6875 0.8125 1.6875 0.8125q1.078125 0 1.8125 -0.84375q0.75 -0.84375 0.75 -2.484375q0 -1.71875 -0.71875 -2.546875q-0.703125 -0.84375 -1.78125 -0.84375q-1.0625 0 -1.75 0.828125q-0.671875 0.8125 -0.671875 2.484375zm17.090607 2.25l2.90625 0.484375q-0.546875 1.609375 -1.765625 2.453125q-1.21875 0.828125 -3.03125 0.828125q-2.890625 0 -4.28125 -1.890625q-1.09375 -1.5 -1.09375 -3.8125q0 -2.75 1.4375 -4.296875q1.4375 -1.5625 3.640625 -1.5625q2.46875 0 3.890625 1.640625q1.421875 1.625 1.359375 4.984375l-7.328125 0q0.03125 1.296875 0.703125 2.03125q0.6875 0.71875 1.703125 0.71875q0.6875 0 1.15625 -0.375q0.46875 -0.375 0.703125 -1.203125zm0.171875 -2.96875q-0.03125 -1.265625 -0.65625 -1.921875q-0.625 -0.671875 -1.53125 -0.671875q-0.953125 0 -1.578125 0.703125q-0.625 0.703125 -0.609375 1.890625l4.375 0z" fill-rule="nonzero"/><path fill="#3d85c6" d="m414.09186 133.8189l151.30707 0l0 48.0l-151.30707 0z" fill-rule="evenodd"/><path stroke="#ffffff" stroke-width="2.0" stroke-linejoin="round" stroke-linecap="butt" d="m414.09186 133.8189l151.30707 0l0 48.0l-151.30707 0z" fill-rule="evenodd"/><path fill="#ffffff" d="m456.431 165.2989l0 -15.140625l3.078125 0l0 12.5625l7.65625 0l0 2.578125l-10.734375 0zm19.324951 -3.515625l2.90625 0.484375q-0.546875 1.609375 -1.765625 2.453125q-1.21875 0.828125 -3.03125 0.828125q-2.890625 0 -4.28125 -1.890625q-1.09375 -1.5 -1.09375 -3.8125q0 -2.75 1.4375 -4.296875q1.4375 -1.5625 3.640625 -1.5625q2.46875 0 3.890625 1.640625q1.421875 1.625 1.359375 4.984375l-7.328125 0q0.03125 1.296875 0.703125 2.03125q0.6875 0.71875 1.703125 0.71875q0.6875 0 1.15625 -0.375q0.46875 -0.375 0.703125 -1.203125zm0.171875 -2.96875q-0.03125 -1.265625 -0.65625 -1.921875q-0.625 -0.671875 -1.53125 -0.671875q-0.953125 0 -1.578125 0.703125q-0.625 0.703125 -0.609375 1.890625l4.375 0zm5.0648193 -4.578125l2.703125 0l0 1.515625q1.4375 -1.765625 3.4375 -1.765625q1.0625 0 1.84375 0.4375q0.78125 0.4375 1.28125 1.328125q0.734375 -0.890625 1.578125 -1.328125q0.84375 -0.4375 1.796875 -0.4375q1.21875 0 2.0625 0.5q0.84375 0.484375 1.265625 1.453125q0.296875 0.703125 0.296875 2.28125l0 7.078125l-2.921875 0l0 -6.328125q0 -1.640625 -0.3125 -2.125q-0.40625 -0.625 -1.25 -0.625q-0.609375 0 -1.15625 0.375q-0.53125 0.375 -0.78125 1.109375q-0.234375 0.71875 -0.234375 2.28125l0 5.3125l-2.921875 0l0 -6.0625q0 -1.609375 -0.15625 -2.078125q-0.15625 -0.46875 -0.484375 -0.703125q-0.328125 -0.234375 -0.890625 -0.234375q-0.671875 0 -1.21875 0.375q-0.546875 0.359375 -0.78125 1.046875q-0.234375 0.6875 -0.234375 2.28125l0 5.375l-2.921875 0l0 -11.0625zm18.511017 5.375q0 -1.453125 0.71875 -2.8125q0.71875 -1.375 2.03125 -2.09375q1.3125 -0.71875 2.9375 -0.71875q2.515625 0 4.109375 1.640625q1.609375 1.625 1.609375 4.109375q0 2.515625 -1.625 4.171875q-1.609375 1.640625 -4.0625 1.640625q-1.53125 0 -2.90625 -0.6875q-1.375 -0.6875 -2.09375 -2.015625q-0.71875 -1.328125 -0.71875 -3.234375zm3.0 0.15625q0 1.640625 0.78125 2.515625q0.78125 0.875 1.921875 0.875q1.140625 0 1.921875 -0.875q0.78125 -0.875 0.78125 -2.53125q0 -1.625 -0.78125 -2.5q-0.78125 -0.875 -1.921875 -0.875q-1.140625 0 -1.921875 0.875q-0.78125 0.875 -0.78125 2.515625zm20.762451 5.53125l-2.921875 0l0 -5.640625q0 -1.796875 -0.1875 -2.3125q-0.1875 -0.53125 -0.609375 -0.828125q-0.421875 -0.296875 -1.015625 -0.296875q-0.765625 0 -1.375 0.421875q-0.59375 0.421875 -0.828125 1.109375q-0.21875 0.6875 -0.21875 2.53125l0 5.015625l-2.921875 0l0 -11.0625l2.71875 0l0 1.625q1.4375 -1.875 3.640625 -1.875q0.96875 0 1.765625 0.359375q0.8125 0.34375 1.21875 0.890625q0.40625 0.53125 0.5625 1.21875q0.171875 0.6875 0.171875 1.96875l0 6.875z" fill-rule="nonzero"/><path fill="#38761d" d="m453.1589 60.878014c-1.7741394 0 -3.416626 0.39261627 -4.9274597 1.1778412c-1.5065308 0.78118134 -2.6288452 1.9549713 -3.3670044 3.5213852c-0.7381592 1.5664062 -1.1072388 3.3938828 -1.1072388 5.482422c0 3.2299576 0.85687256 5.7111206 2.5705872 7.443474c1.7180481 1.7283096 3.988617 2.5924683 6.8117065 2.5924683c2.253296 0 4.152649 -0.62737274 5.697998 -1.8821182c1.5496826 -1.2587967 2.5122986 -2.9992447 2.887848 -5.2213593l-3.4382324 -0.41892242c-0.24603271 1.639267 -0.8287964 2.853531 -1.74823 3.642807c-0.9194641 0.7892761 -2.0655212 1.1839142 -3.4382324 1.1839142c-1.7094116 0 -3.0950623 -0.5889206 -4.156952 -1.7667618c-1.0618896 -1.1778412 -1.592865 -3.0660324 -1.592865 -5.664566c0 -2.562111 0.5503845 -4.4341125 1.6511536 -5.6159973c1.1007385 -1.185936 2.5317078 -1.7789078 4.2929077 -1.7789078c1.1654968 0 2.1583252 0.32785416 2.9785156 0.98355865c0.8244629 0.6557083 1.3985901 1.633194 1.7223511 2.9324646l3.399353 -0.49178314c-0.40142822 -1.9549713 -1.3144226 -3.4626923 -2.738922 -4.523155c-1.4244995 -1.0645065 -3.2569275 -1.5967636 -5.497284 -1.5967636z" fill-rule="evenodd"/><path fill="#38761d" d="m464.73624 53.956676l0 3.7703094l3.4964905 0l0 -3.7703094zm0 7.3584747l0 19.343319l3.4964905 0l0 -19.343319z" fill-rule="evenodd"/><path fill="#38761d" d="m477.67328 54.55774l-3.4770813 1.9671173l0 4.7902946l-2.564087 0l0 2.549965l2.564087 0l0 11.12878c0 1.9671173 0.14245605 3.2582932 0.42736816 3.87352c0.2848816 0.61118317 0.77697754 1.1049881 1.4762878 1.4814148c0.6993103 0.37641907 1.6835022 0.5646286 2.9526062 0.5646286c0.77700806 0 1.6575928 -0.09713745 2.6417847 -0.29141998l-0.5050354 -2.8960342c-0.634552 0.084999084 -1.1460876 0.12749481 -1.5345764 0.12749481c-0.5180054 0 -0.91729736 -0.07892609 -1.197876 -0.23677826c-0.27627563 -0.15785217 -0.47698975 -0.3703537 -0.60217285 -0.6374893c-0.12088013 -0.26714325 -0.18130493 -0.8682022 -0.18130493 -1.8031921l0 -11.310925l3.5159302 0l0 -2.549965l-3.5159302 0l0 -6.757412z" fill-rule="evenodd"/><path fill="#38761d" d="m492.18375 60.878014c-0.8158264 0 -1.5647888 0.21857071 -2.2468262 0.6557045c-0.67770386 0.4371376 -1.4179993 1.3417702 -2.2209167 2.713894l0 -2.9324608l-3.1468506 0l0 19.343319l3.496521 0l0 -10.127014c0 -1.3842621 0.19424438 -2.6592484 0.58273315 -3.8249512c0.2590027 -0.76498413 0.6928406 -1.3619995 1.3014832 -1.7910461c0.6086426 -0.4330902 1.2949829 -0.6496353 2.0590515 -0.6496353c0.8547058 0 1.7093811 0.23678589 2.564087 0.71035004l1.2043457 -3.0417442c-1.2172852 -0.70427704 -2.4151611 -1.0564156 -3.593628 -1.0564156z" fill-rule="evenodd"/><path fill="#38761d" d="m497.77817 61.31515l0 11.984844c0 1.3964081 0.07122803 2.416397 0.21368408 3.0599594c0.20718384 0.95926666 0.5654602 1.7708054 1.0748291 2.4346085c0.5137024 0.6597519 1.2971802 1.2081985 2.3504333 1.6453323c1.0575867 0.43714142 2.1950378 0.6557083 3.412323 0.6557083c2.7583618 0 4.9404297 -1.0928421 6.546234 -3.2785263l0 2.8413925l3.1274414 0l0 -19.343319l-3.496521 0l0 10.363789c0 1.651413 -0.19207764 2.9122238 -0.5762634 3.7824554c-0.3798828 0.8661728 -1.029541 1.5522385 -1.9489746 2.0581818c-0.9194641 0.5018997 -1.903656 0.7528534 -2.9526062 0.7528534c-1.0489502 0 -1.9295654 -0.24488068 -2.6418152 -0.7346344c-0.71224976 -0.49380493 -1.1784363 -1.1717758 -1.3985901 -2.033905c-0.14245605 -0.5949936 -0.21368408 -1.7485504 -0.21368408 -3.4606705l0 -10.728069z" fill-rule="evenodd"/><path fill="#38761d" d="m526.76025 60.878014c-1.0748291 0 -2.0827637 0.13154602 -3.0238037 0.39463806c-0.93670654 0.25904465 -1.677002 0.5767784 -2.2209473 0.9532013c-0.7251587 0.48571014 -1.2993164 1.0968895 -1.7223511 1.8335495c-0.41870117 0.732605 -0.62805176 1.5299759 -0.62805176 2.3921127c0 0.9471283 0.2546997 1.8133087 0.7640381 2.5985336c0.5136719 0.78118134 1.2647705 1.3943863 2.253296 1.8396149c0.9928589 0.441185 2.7713013 0.9653473 5.335388 1.5724792c1.9036865 0.4492798 3.0950928 0.8196335 3.5742188 1.1110611c0.68634033 0.42499542 1.029541 1.007843 1.029541 1.7485504c0 0.82569885 -0.38848877 1.5461655 -1.1655273 2.1613998c-0.77697754 0.61117554 -1.9683838 0.91677094 -3.5741577 0.91677094c-1.5928955 0 -2.8339233 -0.34606934 -3.7231445 -1.0382004c-0.88494873 -0.69213104 -1.4244995 -1.6878357 -1.6187744 -2.9871063l-3.4576416 0.5099945c0.38848877 2.0521164 1.2842407 3.6003113 2.6871338 4.6445847c1.4072266 1.0442734 3.4511719 1.5664062 6.131836 1.5664062c1.6187744 0 3.0691528 -0.26309204 4.3511963 -0.7892761c1.2820435 -0.53022766 2.261963 -1.277008 2.9396362 -2.240326c0.6820679 -0.9673691 1.0230713 -1.9974747 1.0230713 -3.0903168c0 -1.1171265 -0.27844238 -2.0521164 -0.8352661 -2.8049622c-0.55688477 -0.75284576 -1.3252563 -1.3255768 -2.3051147 -1.718193c-0.97558594 -0.39665985 -2.7000732 -0.90463257 -5.173523 -1.5239105c-1.7094116 -0.4371338 -2.7389526 -0.7164154 -3.088562 -0.83784485c-0.6086426 -0.23071289 -1.0554199 -0.5221329 -1.340332 -0.8742752c-0.2849121 -0.33999634 -0.42736816 -0.7224884 -0.42736816 -1.1474838c0 -0.6678467 0.34320068 -1.2506943 1.029541 -1.7485504c0.68634033 -0.4978485 1.8323975 -0.74677277 3.4382324 -0.74677277c1.3597412 0 2.4108276 0.27928162 3.1533203 0.83784485c0.74676514 0.55856323 1.197876 1.335701 1.3532715 2.331398l3.4188232 -0.4371338c-0.22015381 -1.2507019 -0.62164307 -2.2484207 -1.2044067 -2.9931755c-0.58270264 -0.7487984 -1.4870605 -1.3417702 -2.7130127 -1.7789078c-1.2216187 -0.4371338 -2.6417847 -0.6557045 -4.260559 -0.6557045z" fill-rule="evenodd"/><path fill="#000000" fill-opacity="0.0" d="m320.31552 128.36482l0 -18.658684l-141.73543 0" fill-rule="evenodd"/><path stroke="#ff0000" stroke-width="2.0" stroke-linejoin="round" stroke-linecap="butt" d="m320.31552 128.36482l0 -18.658684l-134.88126 0" fill-rule="evenodd"/><path fill="#ff0000" stroke="#ff0000" stroke-width="2.0" stroke-linecap="butt" d="m185.43427 109.70614l2.249176 -2.2491684l-6.17955 2.2491684l6.17955 2.2491684z" fill-rule="evenodd"/></g></svg>